<?xml version="1.0" encoding="utf-8"?>
<!-- Generator: Adobe Illustrator 23.0.2, SVG Export Plug-In . SVG Version: 6.00 Build 0)  -->
<svg version="1.1" id="Livello_1" xmlns="http://www.w3.org/2000/svg" xmlns:xlink="http://www.w3.org/1999/xlink" x="0px" y="0px"
	 viewBox="0 0 3405.66 952.08" style="enable-background:new 0 0 3405.66 952.08;" xml:space="preserve">
<style type="text/css">
	.st0{font-family:'MarcellusSC-Regular';}
	.st1{font-size:147.5107px;}
	.st2{font-family:'Montserrat-SemiBold';}
	.st3{font-size:54.4655px;}
	.st4{letter-spacing:3;}
	.st5{fill:#003545;}
	.st6{font-family:'Montserrat-Medium';}
	.st7{font-size:24px;}
</style>
<g>
	<text transform="matrix(1 0 0 1 614.833 763.9639)" class="st0 st1">FULCRON</text>
	<text transform="matrix(1 0 0 1 874.0439 841.6699)" class="st2 st3 st4">GRV</text>
	<g>
		<path d="M942.91,224.48c-89.89,0-162.76,72.87-162.76,162.76S853.02,550,942.91,550s162.76-72.87,162.76-162.76
			S1032.8,224.48,942.91,224.48z M982.73,437.55c-10.94,8.82-24.84,14.11-39.98,14.11c-14.33,0-27.56-4.73-38.2-12.71l-74.68,61.51
			c0,0,48.15-58.05,61.93-74.23c-8.04-10.67-12.81-23.95-12.81-38.34c0-15.63,5.63-29.94,14.97-41.03
			c-15.8-18.57-61.11-72.84-61.11-72.84l74.07,61.12c10.21-6.95,22.55-11.02,35.83-11.02c13.93,0,26.81,4.48,37.3,12.06l74.24-61.15
			c0,0-46.86,56.48-61.35,73.54c8.49,10.83,13.57,24.47,13.57,39.3c0,13.81-4.4,26.58-11.86,37.01
			c15.62,18.34,61.31,73.08,61.31,73.08L982.73,437.55z"/>
		<path d="M1128.22,301.53c-35.64-77.65-119.79-125.72-204.73-117.28c-85.15,8.46-158.31,70.81-178.67,154.26
			c-20.28,83.1,14.36,171.65,85.5,219.09c69.63,46.43,164.67,44.6,232.29-4.81c8.77-6.41,17.02-13.44,24.75-21.07
			C1147.12,471.22,1163.74,378.93,1128.22,301.53z M1076.29,520.66c-55.78,55.1-142.07,71.19-213.36,37.42
			c-71.24-33.74-114.49-109.48-107.61-187.92c6.95-79.26,65.9-147.03,142.99-165.87c76.01-18.58,157.96,13.14,201.42,78.31
			C1149.29,356.92,1138.85,457.32,1076.29,520.66z"/>
		<g>
			<path d="M963.12,394.99l19.19-15.65l-24.9-1.5C957.41,377.84,962.75,394.87,963.12,394.99z"/>
			<path d="M928.4,378.1l-24.89,1.69l19.31,15.5C923.2,395.16,928.4,378.1,928.4,378.1z"/>
			<path d="M951.23,377.16l-8.28-26.99l-8.08,27.05v0.01l-4.58,15.36L919.82,424l17.76-12.67l0,0l3.19-2.27l-0.02-0.06l0.14-0.1
				l1.65-40.04c0,0,2.37,28.91,2.9,40.2l0.05,0.04l20.74,15.22l-12.36-38.84L951.23,377.16z"/>
		</g>
	</g>
</g>
<g>
	<text transform="matrix(1 0 0 1 2439.5281 763.9636)" class="st5 st0 st1">FULCRON</text>
	<text transform="matrix(1 0 0 1 2698.739 841.6696)" class="st5 st2 st3 st4">GRV</text>
	<g>
		<path class="st5" d="M2767.61,224.48c-89.89,0-162.76,72.87-162.76,162.76S2677.72,550,2767.61,550
			c89.89,0,162.76-72.87,162.76-162.76S2857.5,224.48,2767.61,224.48z M2807.43,437.55c-10.94,8.82-24.84,14.11-39.98,14.11
			c-14.33,0-27.56-4.73-38.2-12.71l-74.68,61.51c0,0,48.15-58.05,61.93-74.23c-8.04-10.67-12.81-23.95-12.81-38.34
			c0-15.63,5.63-29.94,14.97-41.03c-15.8-18.57-61.11-72.84-61.11-72.84l74.07,61.12c10.21-6.95,22.55-11.02,35.83-11.02
			c13.93,0,26.81,4.48,37.3,12.06l74.24-61.15c0,0-46.86,56.48-61.35,73.54c8.49,10.83,13.57,24.47,13.57,39.3
			c0,13.81-4.4,26.58-11.86,37.01c15.62,18.34,61.31,73.08,61.31,73.08L2807.43,437.55z"/>
		<path class="st5" d="M2952.92,301.53c-35.64-77.65-119.79-125.72-204.73-117.28c-85.15,8.46-158.31,70.81-178.67,154.26
			c-20.28,83.1,14.36,171.65,85.5,219.09c69.63,46.43,164.67,44.6,232.29-4.81c8.77-6.41,17.02-13.44,24.75-21.07
			C2971.82,471.22,2988.44,378.93,2952.92,301.53z M2900.99,520.66c-55.78,55.1-142.07,71.19-213.36,37.42
			c-71.24-33.74-114.49-109.48-107.61-187.93c6.95-79.26,65.9-147.03,142.99-165.87c76.01-18.58,157.96,13.14,201.42,78.31
			C2973.99,356.92,2963.55,457.32,2900.99,520.66z"/>
		<g>
			<path class="st5" d="M2787.82,394.99l19.19-15.65l-24.9-1.5C2782.11,377.84,2787.45,394.87,2787.82,394.99z"/>
			<path class="st5" d="M2753.1,378.1l-24.89,1.69l19.31,15.5C2747.89,395.16,2753.1,378.1,2753.1,378.1z"/>
			<path class="st5" d="M2775.93,377.16l-8.28-26.99l-8.08,27.05v0.01l-4.57,15.36L2744.53,424l17.76-12.67l0,0l3.19-2.27
				l-0.02-0.06l0.14-0.1l1.65-40.04c0,0,2.37,28.91,2.9,40.2l0.05,0.04l20.74,15.22l-12.37-38.84L2775.93,377.16z"/>
		</g>
	</g>
</g>
<rect x="93.77" y="63.91" width="86.68" height="33.55"/>
<text transform="matrix(1 0 0 1 212.6206 91.0099)" class="st6 st7">C=15 M=0 Y=0 K=100</text>
<rect x="93.77" y="63.91" width="86.68" height="33.55"/>
<text transform="matrix(1 0 0 1 212.6206 91.0099)" class="st6 st7">C=15 M=0 Y=0 K=100</text>
<rect x="1863.74" y="63.91" class="st5" width="86.68" height="33.55"/>
<text transform="matrix(1 0 0 1 1982.5872 91.0099)" class="st6 st7">C=100 M=65 Y=50 K=50</text>
</svg>
