<?xml version="1.0" standalone="no"?>
<!DOCTYPE svg PUBLIC "-//W3C//DTD SVG 20010904//EN"
 "http://www.w3.org/TR/2001/REC-SVG-20010904/DTD/svg10.dtd">
<svg version="1.0" xmlns="http://www.w3.org/2000/svg"
 width="1080.000000pt" height="1080.000000pt" viewBox="0 0 1080.000000 1080.000000"
 preserveAspectRatio="xMidYMid meet">
<metadata>
Created by potrace 1.11, written by Peter Selinger 2001-2013
</metadata>
<g transform="translate(0.000000,1080.000000) scale(0.100000,-0.100000)"
fill="#000000" stroke="none">
<path d="M5288 8735 c-2 -1 -48 -5 -103 -9 -55 -3 -116 -8 -135 -10 -73 -7
-155 -18 -160 -21 -3 -2 -30 -6 -60 -10 -30 -4 -58 -9 -61 -11 -4 -2 -24 -6
-45 -10 -59 -8 -284 -71 -397 -110 -335 -117 -649 -285 -932 -498 -44 -33 -82
-63 -85 -66 -3 -3 -18 -16 -35 -29 -69 -53 -229 -204 -336 -317 -239 -256
-474 -618 -612 -946 -43 -101 -114 -295 -127 -347 -4 -20 -20 -81 -34 -136
-40 -153 -69 -319 -81 -455 -4 -41 -8 -88 -10 -105 -5 -39 -5 -438 -1 -490 18
-202 42 -345 91 -550 211 -880 774 -1641 1555 -2102 159 -94 437 -221 600
-273 213 -69 462 -127 624 -146 22 -3 57 -7 76 -9 229 -28 605 -24 844 10 338
48 704 157 974 290 51 25 95 45 97 45 24 0 411 245 489 310 11 10 66 55 121
100 92 76 288 266 360 350 132 153 245 310 347 480 73 121 173 314 196 375 6
17 24 62 40 100 70 168 151 437 178 590 3 22 8 49 11 60 13 66 31 189 39 270
3 33 7 76 9 95 5 45 6 421 1 480 -7 81 -18 195 -21 212 -2 9 -6 38 -10 65 -27
198 -106 496 -187 703 -93 238 -198 435 -347 655 -66 98 -116 167 -146 201 -5
6 -30 36 -54 65 -59 71 -320 332 -396 395 -421 352 -909 595 -1445 719 -116
26 -263 51 -355 59 -33 3 -82 8 -110 11 -50 6 -362 14 -367 10z m338 -269
c401 -33 765 -133 1129 -310 539 -263 972 -656 1275 -1156 124 -205 211 -393
286 -615 33 -99 80 -270 90 -329 2 -17 7 -38 9 -46 7 -24 24 -135 40 -255 22
-172 23 -542 0 -687 -2 -13 -6 -45 -10 -73 -8 -64 -16 -112 -21 -139 -2 -11
-7 -37 -10 -56 -28 -162 -126 -475 -197 -630 -16 -36 -40 -88 -52 -116 -38
-85 -131 -249 -212 -372 -360 -547 -903 -965 -1543 -1187 -98 -34 -300 -91
-359 -101 -14 -3 -45 -9 -68 -14 -60 -14 -228 -39 -319 -47 -155 -15 -558 -8
-662 12 -9 1 -42 6 -72 10 -60 8 -69 10 -150 26 -741 147 -1430 597 -1869
1219 -45 63 -85 120 -89 125 -4 6 -11 17 -15 25 -4 8 -18 33 -32 55 -40 65
-131 235 -163 305 -38 83 -103 240 -107 260 -2 8 -15 49 -30 90 -23 67 -82
283 -91 335 -51 300 -58 369 -58 595 0 159 8 334 19 391 3 12 7 43 10 68 5 42
27 163 40 219 3 12 7 30 9 40 22 96 92 322 119 385 8 18 32 73 53 122 215 503
598 972 1064 1302 265 188 565 335 878 430 65 19 126 37 137 39 11 2 47 10 80
18 33 9 76 18 95 21 19 3 60 10 90 15 57 9 113 15 240 26 41 4 76 7 77 8 5 4
319 -2 389 -8z"/>
<path d="M5357 8064 c-1 -1 -60 -4 -131 -8 -71 -4 -132 -9 -135 -11 -4 -2 -36
-7 -71 -10 -36 -4 -68 -9 -71 -11 -4 -2 -23 -6 -42 -8 -105 -14 -332 -78 -479
-137 -241 -96 -430 -202 -643 -363 -113 -85 -126 -97 -265 -236 -163 -162
-265 -290 -392 -490 -52 -83 -188 -350 -188 -370 0 -9 -4 -20 -9 -25 -8 -9
-77 -203 -86 -243 -2 -9 -13 -51 -24 -92 -59 -230 -83 -421 -82 -654 0 -230
21 -413 73 -631 12 -49 22 -92 23 -95 7 -32 45 -145 80 -235 187 -484 502
-892 935 -1211 30 -22 66 -47 80 -54 14 -7 27 -16 30 -20 9 -11 214 -126 290
-163 205 -97 413 -165 650 -212 91 -19 101 -20 200 -30 36 -3 81 -8 100 -11
83 -11 379 -5 510 11 132 16 331 57 435 89 6 1 24 6 40 11 75 19 310 114 405
163 281 145 474 285 686 496 149 150 221 236 327 392 172 254 298 530 371 817
36 140 38 148 60 297 33 215 37 514 11 690 -2 14 -7 45 -10 70 -31 241 -121
537 -235 775 -189 396 -512 775 -875 1027 -350 243 -775 410 -1155 454 -30 3
-57 8 -60 9 -11 6 -347 24 -353 19z m-1637 -914 c30 -25 65 -54 79 -65 13 -11
34 -29 47 -40 13 -11 37 -31 55 -45 18 -14 73 -59 123 -101 167 -138 380 -314
461 -379 44 -36 82 -68 85 -71 3 -3 58 -49 122 -102 l118 -97 60 36 c105 61
207 100 345 130 62 13 290 13 360 -1 143 -28 295 -89 396 -158 l37 -25 189
156 c104 87 223 184 264 217 41 33 76 62 79 65 5 5 490 405 534 440 10 8 39
32 63 53 50 42 67 49 37 15 -30 -34 -145 -169 -177 -209 -16 -19 -43 -52 -60
-73 -18 -22 -83 -101 -145 -175 -62 -75 -121 -145 -130 -156 -62 -75 -170
-204 -188 -225 -49 -57 -101 -119 -134 -160 -19 -23 -48 -57 -63 -74 -60 -66
-62 -72 -35 -108 52 -72 130 -230 152 -309 45 -156 54 -361 22 -514 -22 -101
-78 -242 -127 -321 -22 -34 -39 -65 -39 -69 0 -6 39 -56 106 -135 41 -47 166
-195 183 -215 9 -11 73 -87 141 -170 69 -82 135 -161 146 -175 30 -35 103
-121 123 -145 67 -82 226 -271 231 -275 3 -3 14 -15 24 -27 20 -24 16 -31 -6
-10 -7 6 -38 32 -68 57 -30 25 -61 51 -68 58 -8 7 -30 25 -50 40 -21 15 -42
32 -48 37 -23 22 -180 151 -749 619 -60 50 -112 93 -115 96 -3 4 -16 13 -28
22 -23 16 -26 15 -73 -21 -121 -91 -299 -160 -484 -186 -51 -7 -200 -7 -240 0
-16 3 -56 10 -89 16 -107 19 -269 86 -363 150 -23 16 -45 29 -50 29 -5 0 -31
-18 -58 -41 -28 -23 -68 -56 -90 -74 -22 -18 -173 -143 -336 -277 -163 -133
-383 -315 -490 -403 -107 -87 -197 -164 -201 -170 -4 -5 -8 -6 -8 -1 0 8 54
76 120 151 19 22 51 60 70 84 19 25 86 105 148 180 62 75 121 145 130 156 74
89 171 204 188 225 12 14 82 97 155 185 73 88 139 166 146 173 18 19 17 28
-16 75 -106 155 -170 365 -175 572 -5 200 75 445 199 613 l46 64 -48 56 c-27
32 -98 116 -158 187 -60 72 -122 146 -139 166 -33 38 -47 54 -116 139 -25 30
-48 57 -51 60 -3 3 -99 118 -214 255 -114 138 -217 261 -229 275 -20 23 -20
23 -1 10 11 -8 45 -35 75 -60z"/>
<path d="M5398 5994 c-6 -10 -74 -233 -104 -339 -40 -140 -107 -356 -183 -585
-44 -135 -81 -250 -81 -257 0 -8 318 209 336 230 1 1 5 74 9 162 4 88 8 187
10 220 1 33 3 91 4 129 1 90 9 80 16 -20 3 -43 7 -95 10 -114 2 -19 7 -84 11
-145 4 -60 8 -128 9 -150 2 -22 4 -50 4 -62 1 -15 31 -43 109 -99 126 -93 190
-140 215 -160 9 -7 17 -10 17 -6 0 4 -46 149 -101 322 -56 173 -105 329 -110
345 -34 125 -167 536 -171 529z"/>
<path d="M5640 5548 c0 -12 66 -214 85 -260 5 -13 36 8 161 109 85 70 153 128
151 129 -4 5 -92 11 -247 19 -74 4 -138 9 -142 12 -5 2 -8 -2 -8 -9z"/>
<path d="M5057 5543 c-1 0 -58 -4 -127 -8 -69 -5 -133 -8 -143 -9 -9 -1 -16
-5 -15 -11 2 -11 297 -250 302 -244 3 3 60 186 81 257 6 22 4 22 -45 20 -28
-2 -52 -4 -53 -5z"/>
</g>
</svg>
